<?xml version="1.0" encoding="UTF-8" standalone="no"?>
<svg xmlns:rdf="http://www.w3.org/1999/02/22-rdf-syntax-ns#" xmlns="http://www.w3.org/2000/svg" height="3543.3" width="3543.3" version="1.1" xmlns:cc="http://creativecommons.org/ns#" xmlns:dc="http://purl.org/dc/elements/1.1/">
<style>
    path { stroke: #000000; }
    @media (prefers-color-scheme: dark) {
      path { stroke: #ffffff; }
    }
  </style>
<g transform="translate(-150.78 2824.5)" stroke="#000" stroke-linecap="round">
<g fill="none">
<g stroke-linejoin="round">
<path d="m3366.3-1042.6c110.94-6.5263 206.3 35.039 213.04 155.47 77.718 646.84-82.353 621.03-466.4 673.68" stroke-width="80"/>
<path d="m2218.2-1031.1c321.97-81.981 617.85-201.95 921.28-310.93" stroke-width="28.214"/>
<path d="m2051.2-1077.1c14.748-67.355 40.462-81.49 63.338-109.4" stroke-width="32.245"/>
<path d="m477.85-1044.1c-110.94-6.5264-206.3 35.039-213.05 155.47-77.718 646.84 82.353 621.03 466.4 673.68" stroke-width="80"/>
<path d="m1642.1-1032.6c-321.97-81.981-617.85-201.95-921.28-310.93" stroke-width="28.214"/>
<path d="m1809.1-1078.6c-14.749-67.355-40.462-81.49-63.338-109.4" stroke-width="32.245"/>
</g>
<g stroke-width="20">
<path d="m2043.7-93.643 73.48 101.03"/>
<path d="m2148.8-73.731 96.971 87.797"/>
<path d="m2270-67.657 88.405 86.284"/>
<path d="m1963.5-104.28 26.72 101.03"/>
<path d="m2391-56.42 66.8 53.175"/>
<path d="m1801.2-93.643-73.48 101.03"/>
<path d="m1696.1-73.731-96.971 87.797"/>
<path d="m1574.9-67.657-88.405 86.284"/>
<path d="m1881.4-104.28-26.8 101.03"/>
<path d="m1453.8-56.42-66.8 53.175"/>
</g>
<g stroke-linejoin="round">
<g stroke-width="20">
<path d="m817.93-214.46c20.215 151.91 27.926 153.78 39.564 202.77"/>
<path d="m920.79-58.352c20.21 151.91 27.93 153.78 39.56 202.76"/>
<path d="m1025.7 71.037c20.215 151.91 27.926 153.78 39.564 202.77"/>
<path d="m1127.1 181.19c20.215 151.91 27.926 153.78 39.564 202.77"/>
<path d="m1225 268.62c20.215 151.91 27.926 153.78 39.564 202.77"/>
<path d="m1328.2 347.3c20.215 151.91 27.926 153.78 39.564 202.77"/>
<path d="m1420.9 406.75c20.215 151.91 27.926 153.78 39.564 202.77"/>
<path d="m1545 445.22c20.215 151.91 27.926 153.78 39.564 202.77"/>
<path d="m1653.1 486.87c20.531 127.49 28.363 129.06 40.183 170.16"/>
<path d="m1769.9 521.47c20.904 101.83 28.879 103.09 40.913 135.92"/>
<path d="m3030.5-215.52c-20.215 151.91-27.926 153.78-39.564 202.77"/>
<path d="m2927.6-59.408c-20.2 151.91-27.9 153.78-39.5 202.77"/>
<path d="m2822.7 69.981c-20.215 151.91-27.926 153.78-39.564 202.77"/>
<path d="m2721.3 180.14c-20.215 151.91-27.926 153.78-39.564 202.77"/>
<path d="m2623.4 267.56c-20.215 151.91-27.926 153.78-39.564 202.77"/>
<path d="m2520.2 346.24c-20.215 151.91-27.926 153.78-39.564 202.77"/>
<path d="m2427.5 405.69c-20.215 151.91-27.926 153.78-39.564 202.77"/>
<path d="m2303.4 444.16c-20.215 151.91-27.926 153.78-39.564 202.77"/>
<path d="m2195.3 485.81c-20.531 127.49-28.363 129.06-40.183 170.16"/>
<path d="m2078.5 520.42c-20.904 101.83-28.879 103.09-40.914 135.92"/>
<path d="m1929.5 532.49 2.1611 125.35"/>
<path d="m2254.9-1045.2c26.496-31.354 53.283-62.381 66.996-108.06"/>
<path d="m2361.9-1071.1c26.496-31.354 53.283-62.381 66.996-108.06"/>
<path d="m2469.9-1105.7c26.496-31.354 53.283-62.381 66.996-108.06"/>
<path d="m2569.8-1134.1c26.496-31.354 53.283-62.381 66.996-108.06"/>
<path d="m2662.7-1168.6c26.496-31.354 53.283-62.381 66.996-108.06"/>
<path d="m2757.3-1205.1c26.496-31.354 53.283-62.381 66.996-108.06"/>
<path d="m2858.9-1235.3c26.496-31.354 53.283-62.381 66.996-108.06"/>
<path d="m2956.2-1272.1c26.496-31.354 53.283-62.381 66.996-108.06"/>
<path d="m3048.8-1306.3c28.464-24.646 57.241-49.035 71.972-84.939"/>
<path d="m1603.2-1045.3c-26.496-31.354-53.283-62.381-66.996-108.06"/>
<path d="m1496.3-1071.2c-26.496-31.354-53.283-62.381-66.996-108.06"/>
<path d="m1388.2-1105.8c-26.496-31.354-53.283-62.381-66.996-108.06"/>
<path d="m1288.3-1134.2c-26.496-31.354-53.283-62.381-66.996-108.06"/>
<path d="m1195.4-1168.8c-26.496-31.354-53.283-62.381-66.996-108.06"/>
<path d="m1100.8-1205.2c-26.496-31.354-53.283-62.381-66.996-108.06"/>
<path d="m999.19-1235.5c-26.496-31.354-53.283-62.381-66.996-108.06"/>
<path d="m901.94-1272.2c-26.496-31.354-53.283-62.381-66.996-108.06"/>
<path d="m809.33-1306.5c-28.464-24.646-57.241-49.035-71.972-84.939"/>
</g>
<path d="m856.11-2200.5c-130.5 109.42-222.65 278.28-276.38 541.25 1018.3-433.49 1385.7 214.16 2562.3-380.03 43.974 949-41.804 1136.4 111.11 1383.8" stroke-width="32.245"/>
<g stroke-width="20">
<path d="m694.29-1704.5c205.21-205.06 336.46-262.18 483.67-351.24"/>
<path d="m1163.3-1809.5c236.9-167.44 375.91-201.57 536.05-264.48"/>
<path d="m1688.1-1802.4c231.57-174.74 369.45-213.18 527.56-281.04"/>
<path d="m2160.6-1768.6c228.24-179.07 365.37-220.11 522.17-290.94"/>
<path d="m2681.1-1850.7c226.41-181.38 267.13-193.82 423.2-266.24"/>
</g>
<path d="m714.04-1710c-43.974 949 33.274 812.29-119.64 1059.7" stroke-width="28.214"/>
<path d="m2321.4 638.4c696.88-311.82 1333.1-1573.7 959.91-3071.3-14.842-34.18-27.58-72.068-109.73-92.701-627.73-246.68-954.68-219.79-1241.8-220.38-287.09-0.5919-614.04-27.483-1241.8 219.2-82.154 20.632-94.891 58.521-111.51 95.392-374.98 1500.3 261.26 2762.2 952.55 3072.6 271.23 26.307 535.64 25.057 792.33-2.8543z" stroke-width="80"/>
<path d="m1640.3 188.69c245.72-90.548 409.45-52.276 564.28 0" stroke-width="32.245"/>
<path d="m1648.8-837.6c155.85-75.346 317.33-144.11 563.79 0" stroke-width="32.245"/>
</g>
</g>
<path stroke-linejoin="round" d="m2229.7-996.5c374.87-62.55 715.12-44.26 1059.5 0 23.288 115.84 28.309 289.66 5.7579 512.46-450.91 102.8-660.94 71.35-1048 17.274-51.726-176.58-41.604-353.16-17.274-529.73z" stroke-width="32.245" fill="#fff"/>
<path stroke-linejoin="round" d="m1630.6-998.03c-374.87-62.55-715.12-44.26-1059.5 0-23.288 115.84-28.31 289.66-5.7579 512.46 450.91 102.8 660.94 71.35 1048 17.274 51.726-176.58 41.604-353.16 17.274-529.73z" stroke-width="32.245" fill="#fff"/>
</g>
</svg>
